<?xml version="1.0" encoding="UTF-8"?>
<svg xmlns="http://www.w3.org/2000/svg" xmlns:xlink="http://www.w3.org/1999/xlink" width="64px" height="64px" viewBox="0 0 64 64" version="1.1">
<g id="surface1">
<path style=" stroke:none;fill-rule:nonzero;fill:rgb(0%,0%,0%);fill-opacity:1;" d="M 33.421875 42.578125 C 27.8125 42.578125 23.25 38.015625 23.25 32.40625 C 23.25 26.8125 27.8125 22.25 33.421875 22.25 C 39.015625 22.25 43.578125 26.8125 43.578125 32.40625 C 43.578125 38.015625 39.015625 42.578125 33.421875 42.578125 M 14.765625 60.25 C 11.6875 60.25 9.1875 57.75 9.1875 54.671875 C 9.1875 51.609375 11.6875 49.109375 14.765625 49.109375 C 17.84375 49.109375 20.34375 51.609375 20.34375 54.671875 C 20.34375 57.75 17.84375 60.25 14.765625 60.25 M 4.28125 10.4375 C 4.28125 6.75 7.28125 3.75 10.96875 3.75 C 14.65625 3.75 17.65625 6.75 17.65625 10.4375 C 17.65625 14.125 14.65625 17.125 10.96875 17.125 C 7.28125 17.125 4.28125 14.125 4.28125 10.4375 M 55.78125 15.0625 C 57.953125 15.0625 59.71875 16.828125 59.71875 19 C 59.71875 21.171875 57.953125 22.9375 55.78125 22.9375 C 53.625 22.9375 51.84375 21.171875 51.84375 19 C 51.84375 16.828125 53.625 15.0625 55.78125 15.0625 M 50.234375 24.296875 C 51.625 25.765625 53.609375 26.6875 55.78125 26.6875 C 60.03125 26.6875 63.46875 23.234375 63.46875 19 C 63.46875 14.765625 60.03125 11.3125 55.78125 11.3125 C 51.546875 11.3125 48.09375 14.765625 48.09375 19 C 48.09375 19.703125 48.203125 20.390625 48.375 21.03125 L 44.296875 23.765625 C 41.75 20.5625 37.8125 18.5 33.421875 18.5 C 30.140625 18.5 27.109375 19.640625 24.734375 21.546875 L 19.234375 16.796875 C 20.59375 15.03125 21.40625 12.828125 21.40625 10.4375 C 21.40625 4.6875 16.71875 0 10.96875 0 C 5.203125 0 0.53125 4.6875 0.53125 10.4375 C 0.53125 16.1875 5.203125 20.875 10.96875 20.875 C 12.96875 20.875 14.84375 20.3125 16.421875 19.328125 L 22.140625 24.265625 C 20.484375 26.5625 19.5 29.375 19.5 32.40625 C 19.5 35.90625 20.796875 39.109375 22.9375 41.546875 L 19.109375 46.4375 C 17.8125 45.75 16.328125 45.359375 14.765625 45.359375 C 9.625 45.359375 5.4375 49.53125 5.4375 54.671875 C 5.4375 59.8125 9.625 64 14.765625 64 C 19.90625 64 24.09375 59.8125 24.09375 54.671875 C 24.09375 52.453125 23.3125 50.421875 22.015625 48.8125 L 25.765625 44.03125 C 27.96875 45.46875 30.59375 46.328125 33.421875 46.328125 C 41.078125 46.328125 47.328125 40.078125 47.328125 32.40625 C 47.328125 30.484375 46.9375 28.65625 46.21875 26.984375 Z M 50.234375 24.296875 "/>
<path style=" stroke:none;fill-rule:nonzero;fill:rgb(0%,0%,0%);fill-opacity:1;" d="M 56.140625 58 C 54.15625 58 52.546875 56.390625 52.546875 54.40625 C 52.546875 52.4375 54.15625 50.828125 56.140625 50.828125 C 58.109375 50.828125 59.71875 52.4375 59.71875 54.40625 C 59.71875 56.390625 58.109375 58 56.140625 58 M 56.140625 47.078125 C 52.09375 47.078125 48.796875 50.359375 48.796875 54.40625 C 48.796875 58.46875 52.09375 61.75 56.140625 61.75 C 60.1875 61.75 63.46875 58.46875 63.46875 54.40625 C 63.46875 50.359375 60.1875 47.078125 56.140625 47.078125 "/>
</g>
</svg>
