<?xml version="1.0" encoding="UTF-8"?>
<svg xmlns="http://www.w3.org/2000/svg" xmlns:xlink="http://www.w3.org/1999/xlink" width="64px" height="64px" viewBox="0 0 64 64" version="1.1">
<g id="surface1">
<path style=" stroke:none;fill-rule:nonzero;fill:rgb(0%,0%,0%);fill-opacity:1;" d="M 60.558594 16.773438 C 60.058594 16.269531 59.378906 15.984375 58.667969 15.984375 C 57.957031 15.984375 57.273438 16.269531 56.773438 16.773438 L 53.332031 20.238281 L 53.332031 5.332031 C 53.332031 3.859375 52.140625 2.667969 50.667969 2.667969 C 49.195312 2.667969 48 3.859375 48 5.332031 L 48 20.238281 L 44.558594 16.773438 C 43.515625 15.726562 41.820312 15.726562 40.773438 16.773438 C 39.726562 17.820312 39.726562 19.515625 40.773438 20.558594 L 48.773438 28.558594 C 49.027344 28.804688 49.324219 28.992188 49.652344 29.121094 C 50.296875 29.40625 51.035156 29.40625 51.679688 29.121094 C 52.007812 28.992188 52.304688 28.804688 52.558594 28.558594 L 60.558594 20.558594 C 61.066406 20.058594 61.347656 19.378906 61.347656 18.667969 C 61.347656 17.957031 61.066406 17.273438 60.558594 16.773438 Z M 50.667969 34.667969 C 49.195312 34.667969 48 35.859375 48 37.332031 L 48 38.347656 L 44.054688 34.398438 C 41.152344 31.523438 36.472656 31.523438 33.574219 34.398438 L 31.707031 36.265625 L 25.09375 29.652344 C 22.160156 26.859375 17.546875 26.859375 14.613281 29.652344 L 10.667969 33.601562 L 10.667969 18.667969 C 10.667969 17.195312 11.859375 16 13.332031 16 L 34.667969 16 C 36.140625 16 37.332031 14.804688 37.332031 13.332031 C 37.332031 11.859375 36.140625 10.667969 34.667969 10.667969 L 13.332031 10.667969 C 8.914062 10.667969 5.332031 14.25 5.332031 18.667969 L 5.332031 50.667969 C 5.332031 55.085938 8.914062 58.667969 13.332031 58.667969 L 45.332031 58.667969 C 49.75 58.667969 53.332031 55.085938 53.332031 50.667969 L 53.332031 37.332031 C 53.332031 35.859375 52.140625 34.667969 50.667969 34.667969 Z M 13.332031 53.332031 C 11.859375 53.332031 10.667969 52.140625 10.667969 50.667969 L 10.667969 41.148438 L 18.398438 33.414062 C 19.214844 32.636719 20.492188 32.636719 21.308594 33.414062 L 41.226562 53.332031 Z M 48 50.667969 C 47.996094 51.175781 47.828125 51.671875 47.519531 52.078125 L 35.492188 40 L 37.359375 38.132812 C 37.746094 37.738281 38.273438 37.515625 38.828125 37.515625 C 39.378906 37.515625 39.90625 37.738281 40.292969 38.132812 L 48 45.894531 Z M 48 50.667969 "/>
</g>
</svg>
