<?xml version="1.0" encoding="UTF-8"?>
<svg xmlns="http://www.w3.org/2000/svg" xmlns:xlink="http://www.w3.org/1999/xlink" width="64px" height="64px" viewBox="0 0 64 64" version="1.1">
<g id="surface1">
<path style=" stroke:none;fill-rule:nonzero;fill:rgb(0%,0%,0%);fill-opacity:1;" d="M 62.476562 61.953125 L 44.519531 43.28125 C 49.101562 38.6875 51.9375 32.359375 51.9375 25.375 C 51.9375 11.382812 40.554688 0 26.5625 0 C 12.570312 0 1.1875 11.382812 1.1875 25.375 C 1.1875 39.367188 12.570312 50.75 26.5625 50.75 C 32.703125 50.75 38.339844 48.554688 42.734375 44.910156 L 60.734375 63.628906 C 60.96875 63.875 61.285156 64 61.605469 64 C 61.90625 64 62.207031 63.886719 62.441406 63.664062 C 62.921875 63.199219 62.9375 62.433594 62.476562 61.953125 Z M 26.5625 48.332031 C 13.902344 48.332031 3.605469 38.035156 3.605469 25.375 C 3.605469 12.714844 13.902344 2.417969 26.5625 2.417969 C 39.222656 2.417969 49.519531 12.714844 49.519531 25.375 C 49.519531 38.035156 39.222656 48.332031 26.5625 48.332031 Z M 26.5625 48.332031 "/>
</g>
</svg>
